<svg width="19" height="19" viewBox="0 0 19 19" fill="none" xmlns="http://www.w3.org/2000/svg">
<path d="M9.5 14.7444C10.6046 14.7444 11.5 15.6457 11.5 16.7576C11.5 17.8695 10.6046 18.7708 9.5 18.7708C8.3954 18.7708 7.5 17.8695 7.5 16.7576C7.5 15.6457 8.3954 14.7444 9.5 14.7444ZM16.5 14.7444C17.6046 14.7444 18.5 15.6457 18.5 16.7576C18.5 17.8695 17.6046 18.7708 16.5 18.7708C15.3954 18.7708 14.5 17.8695 14.5 16.7576C14.5 15.6457 15.3954 14.7444 16.5 14.7444ZM2.5 14.7444C3.60457 14.7444 4.5 15.6457 4.5 16.7576C4.5 17.8695 3.60457 18.7708 2.5 18.7708C1.39543 18.7708 0.5 17.8695 0.5 16.7576C0.5 15.6457 1.39543 14.7444 2.5 14.7444ZM9.5 7.6984C10.6046 7.6984 11.5 8.59969 11.5 9.71155C11.5 10.8234 10.6046 11.7247 9.5 11.7247C8.3954 11.7247 7.5 10.8234 7.5 9.71155C7.5 8.59969 8.3954 7.6984 9.5 7.6984ZM16.5 7.6984C17.6046 7.6984 18.5 8.59969 18.5 9.71155C18.5 10.8234 17.6046 11.7247 16.5 11.7247C15.3954 11.7247 14.5 10.8234 14.5 9.71155C14.5 8.59969 15.3954 7.6984 16.5 7.6984ZM2.5 7.6984C3.60457 7.6984 4.5 8.59969 4.5 9.71155C4.5 10.8234 3.60457 11.7247 2.5 11.7247C1.39543 11.7247 0.5 10.8234 0.5 9.71155C0.5 8.59969 1.39543 7.6984 2.5 7.6984ZM9.5 0.652344C10.6046 0.652344 11.5 1.55366 11.5 2.6655C11.5 3.77734 10.6046 4.67866 9.5 4.67866C8.3954 4.67866 7.5 3.77734 7.5 2.6655C7.5 1.55366 8.3954 0.652344 9.5 0.652344ZM16.5 0.652344C17.6046 0.652344 18.5 1.55366 18.5 2.6655C18.5 3.77734 17.6046 4.67866 16.5 4.67866C15.3954 4.67866 14.5 3.77734 14.5 2.6655C14.5 1.55366 15.3954 0.652344 16.5 0.652344ZM2.5 0.652344C3.60457 0.652344 4.5 1.55366 4.5 2.6655C4.5 3.77734 3.60457 4.67866 2.5 4.67866C1.39543 4.67866 0.5 3.77734 0.5 2.6655C0.5 1.55366 1.39543 0.652344 2.5 0.652344Z" fill="white"/>
</svg>
