<svg width="20" height="22" viewBox="0 0 20 22" fill="none" xmlns="http://www.w3.org/2000/svg">
<path d="M12.4795 2.53561C12.3305 1.43015 11.3891 0.578125 10.25 0.578125H6.75C5.61091 0.578125 4.66953 1.43015 4.52054 2.53561L4.506 2.67181L4.51379 2.59072L2.75 2.59128C1.50736 2.59128 0.5 3.60527 0.5 4.85609V18.4449C0.5 19.6957 1.50736 20.7097 2.75 20.7097H7.5014C7.4942 20.5159 7.5139 20.3159 7.5642 20.1133L8.0219 18.2706C8.1176 17.8851 8.2738 17.5195 8.483 17.1867H4.5C4.08579 17.1867 3.75 16.8487 3.75 16.4317C3.75 16.0148 4.08579 15.6768 4.5 15.6768H9.856L14.8937 10.6061C15.3517 10.145 15.9113 9.84852 16.5 9.71665V4.85609C16.5 3.60527 15.4926 2.59128 14.25 2.59128L12.4862 2.59072L12.493 2.67181L12.4795 2.53561ZM6.75 2.08799H10.25C10.6642 2.08799 11 2.42599 11 2.84293C11 3.25986 10.6642 3.59786 10.25 3.59786H6.75C6.33579 3.59786 6 3.25986 6 2.84293C6 2.42599 6.33579 2.08799 6.75 2.08799ZM4.5 11.6505H8.5C8.9142 11.6505 9.25 11.9885 9.25 12.4054C9.25 12.8224 8.9142 13.1604 8.5 13.1604H4.5C4.08579 13.1604 3.75 12.8224 3.75 12.4054C3.75 11.9885 4.08579 11.6505 4.5 11.6505ZM4.5 7.62418H12.5C12.9142 7.62418 13.25 7.96218 13.25 8.37911C13.25 8.79604 12.9142 9.13405 12.5 9.13405H4.5C4.08579 9.13405 3.75 8.79604 3.75 8.37911C3.75 7.96218 4.08579 7.62418 4.5 7.62418ZM15.5999 11.3178L9.6974 17.2591C9.3533 17.6054 9.1092 18.0395 8.9911 18.5148L8.5334 20.3575C8.3344 21.1588 9.0556 21.8848 9.8517 21.6844L11.6824 21.2237C12.1545 21.1049 12.5857 20.8592 12.9299 20.5127L18.8323 14.5715C19.7249 13.673 19.7249 12.2163 18.8323 11.3178C17.9397 10.4192 16.4925 10.4192 15.5999 11.3178Z" fill="#002F48"/>
</svg>
