<svg width="16" height="12" viewBox="0 0 16 12" fill="none" xmlns="http://www.w3.org/2000/svg">
<path fill-rule="evenodd" clip-rule="evenodd" d="M8.45144 0.291681C8.6737 0.4785 8.79856 0.731848 8.79856 0.996011C8.79856 1.26017 8.6737 1.51352 8.45144 1.70034L3.36174 5.97713L8.45144 10.2539C8.6674 10.4418 8.78691 10.6935 8.7842 10.9547C8.7815 11.2159 8.65682 11.4657 8.437 11.6504C8.21718 11.8352 7.91982 11.9399 7.60897 11.9422C7.29811 11.9445 6.99863 11.844 6.77503 11.6626L0.847122 6.68146C0.62486 6.49464 0.5 6.24129 0.5 5.97713C0.5 5.71297 0.62486 5.45962 0.847122 5.2728L6.77503 0.291681C6.99736 0.104918 7.29886 0 7.61324 0C7.92761 0 8.22911 0.104918 8.45144 0.291681ZM15.5649 0.291681C15.7872 0.4785 15.9121 0.731848 15.9121 0.996011C15.9121 1.26017 15.7872 1.51352 15.5649 1.70034L10.4752 5.97713L15.5649 10.2539C15.7809 10.4418 15.9004 10.6935 15.8977 10.9547C15.895 11.2159 15.7703 11.4657 15.5505 11.6504C15.3307 11.8352 15.0333 11.9399 14.7225 11.9422C14.4116 11.9445 14.1121 11.844 13.8885 11.6626L7.96061 6.68146C7.73835 6.49464 7.61349 6.24129 7.61349 5.97713C7.61349 5.71297 7.73835 5.45962 7.96061 5.2728L13.8885 0.291681C14.1108 0.104918 14.4124 0 14.7267 0C15.0411 0 15.3426 0.104918 15.5649 0.291681Z" fill="#406376"/>
</svg>
