<svg width="86" height="84" viewBox="0 0 86 84" fill="none" xmlns="http://www.w3.org/2000/svg">
<path fill-rule="evenodd" clip-rule="evenodd" d="M70.6495 24.3455C70.6205 23.9832 70.4255 23.6654 70.299 23.3417C66.4237 13.423 56.5656 5.85621 46.3484 4.83799C38.6996 4.0758 31.4838 6.06827 25.4716 10.7645C23.4966 12.3073 22.2629 13.5919 20.6368 15.4896C17.5556 19.463 15.312 22.9906 15.3125 28.2122C15.3125 29.2674 15.3826 29.894 15.6473 30.6597C15.7687 31.0103 15.9289 31.2511 16.093 31.5641C18.7473 36.6227 23.9151 36.55 28.8055 36.543C34.5862 36.2503 39.9103 35.5832 45.6152 34.4043C53.8889 32.6942 66.4708 30.9306 71.5882 39.9067C71.6896 40.0849 71.7408 40.1737 71.8301 40.3687C71.9318 40.5903 71.9269 40.707 72.1355 40.7648C72.0275 39.4155 72.0436 38.3938 71.7597 37.0511C71.3043 34.8985 70.5711 33.0014 69.5243 31.1677C67.3632 27.3828 64.0232 25.6648 60.0618 24.5363C59.034 24.2435 57.8968 23.9611 56.7673 23.8002L54.1766 23.4621C54.0084 23.4435 53.8472 23.4632 53.6792 23.4443L49.4399 23.4525C44.37 23.704 36.9046 27.1884 32.657 26.4624C31.676 26.2948 30.6356 25.7719 30.3082 24.7425C29.8472 23.2935 30.7206 21.1926 31.3783 20.0052C33.7476 15.7264 38.1257 13.9105 42.6049 13.1273C50.7498 11.7031 59.1274 13.7614 65.5745 19.275L68.7062 22.2031C69.0451 22.6677 69.5441 23.0612 69.8973 23.5215C70.0704 23.7469 70.4485 24.2059 70.6489 24.3455H70.6495Z" fill="#002F48"/>
<path fill-rule="evenodd" clip-rule="evenodd" d="M43.0399 66.1094C53.2779 66.1094 61.4632 61.1981 67.4585 52.7924C67.8643 52.2234 68.7792 50.671 68.9855 50.0982C69.5646 48.492 69.7638 46.9626 69.1325 45.3207C68.7242 44.258 68.0376 43.4297 67.1643 42.788C63.7096 40.2493 56.194 40.5512 51.6958 41.2076C47.2785 41.8521 42.9063 43.1529 38.8006 44.7429C38.5287 44.8481 36.6811 45.5381 36.5227 45.7632C36.7987 45.7568 37.2789 45.6697 37.5551 45.6479C41.3191 45.3532 54.7588 43.7119 54.7588 48.2024C54.7588 50.4762 53.4765 51.9639 51.8028 53.2765C49.2577 55.2724 45.2899 56.1742 42.0108 56.1742C38.3856 56.1742 34.8026 55.3073 32.0419 54.3528C26.0848 52.2929 19.5681 47.9531 16.3668 42.4667C15.2271 40.5134 14.4629 38.9437 13.6562 36.8398C13.6562 40.6649 15.2575 46.6027 17.1458 49.9847C22.68 59.8959 31.9636 66.1094 43.0397 66.1094H43.0399Z" fill="#F67F00"/>
<path fill-rule="evenodd" clip-rule="evenodd" d="M12.8723 22.6902C19.6622 4.98068 40.5221 -4.02314 57.1872 4.69562C57.4383 4.82696 57.6219 4.9218 57.873 5.05261C59.9653 6.14115 62.2435 7.6421 64.0152 9.25014L64.8129 9.96679C64.9399 10.0952 64.9706 10.096 65.0971 10.2063C65.7176 10.746 66.5591 11.7288 67.1295 12.3152C67.8117 13.0169 68.3782 13.8366 68.9883 14.6047C69.3103 15.0102 69.5669 15.4095 69.8677 15.8312C70.0092 16.0297 70.1311 16.2354 70.2591 16.4352L71.4492 18.4093C71.9738 19.3071 72.3767 20.2595 72.8316 21.1943C74.6784 24.9888 75.804 30.9065 75.804 34.9964C75.804 39.6868 75.0642 43.6664 73.5505 47.8214C73.3631 48.3358 73.137 48.8132 72.9537 49.2826C72.8506 49.5471 72.7635 49.7136 72.6404 49.9678L71.6113 52.0498C70.3095 54.5293 68.739 56.5545 66.9577 58.629C65.2888 60.3628 63.984 61.503 62.1418 63.0168C58.7675 65.4938 55.2347 67.1989 51.2232 68.3114C46.2048 69.7031 40.1734 69.6805 35.1466 68.3236C32.9353 67.7269 31.3217 67.0451 29.2543 66.1268C27.3053 65.2613 24.784 63.5392 23.0726 62.1488C18.991 58.8326 16.0365 54.8743 13.7225 50.0461C13.1539 48.8449 12.6662 47.6151 12.2569 46.3361C9.75194 38.5114 9.92704 30.3718 12.8723 22.6899V22.6902ZM13.2261 51.4554C14.6976 54.5431 17.1795 57.8993 19.4525 60.265C22.2145 63.1393 25.5848 65.5842 29.3841 67.3603C51.1041 77.5131 76.8332 61.1066 76.8332 35.8292C76.8332 31.5307 76.4643 29.194 75.4613 25.418C75.3128 24.859 75.1159 24.3148 74.9393 23.7598C74.7724 23.2353 74.5701 22.7134 74.3748 22.2056C73.5198 19.9827 72.0319 17.0541 70.6751 15.1689C70.5158 14.9476 70.4029 14.7704 70.2427 14.5482L68.8541 12.7212C68.1832 11.8279 67.1116 10.7551 66.3287 9.93561C63.4613 6.93399 59.3077 4.35168 55.5017 2.76069C54.4685 2.32884 53.4552 1.98278 52.3859 1.66016C46.4741 -0.122917 38.9672 -0.117057 33.2369 1.88261C32.942 1.98571 32.668 2.05098 32.4072 2.14955L29.4086 3.3721C29.1422 3.48719 28.974 3.60601 28.7151 3.7211C26.6838 4.62342 24.0539 6.439 22.2959 7.86828C16.2694 13.1962 12.4599 18.6568 10.4396 27.0598C8.45171 35.3278 9.58298 43.8124 13.2253 51.4552L13.2261 51.4554Z" fill="#F67F00"/>
<path fill-rule="evenodd" clip-rule="evenodd" d="M78.0308 76.4035V82.293C78.0308 82.484 77.8718 82.5746 77.6878 82.5906V82.7691C77.9069 82.8972 79.3377 82.8285 79.6886 82.8285V82.5906C79.319 82.5008 79.4012 82.3364 79.4027 81.6981V78.1287C79.9029 78.4772 80.6709 79.4408 81.1312 79.9587L82.6444 81.5372C82.9076 81.8649 83.2268 82.175 83.3471 82.4121C83.2289 82.5962 83.1761 82.5442 83.1185 82.7691C83.3377 82.8972 84.7682 82.8285 85.1194 82.8285C85.3381 82.8285 85.1402 82.8468 85.2909 82.7691C85.2492 82.3713 84.9479 82.6566 84.9479 82.1742V76.4035C84.9479 75.872 85.2531 76.2825 85.2909 75.8086H83.2901C83.3123 76.0865 83.3689 76.0212 83.576 76.1656V80.3892L81.4205 78.1112C81.0181 77.61 79.8028 76.4365 79.8028 76.225C79.8028 75.9005 79.9964 76.2479 80.0314 75.8086H77.6875C77.7254 76.2828 78.0305 75.872 78.0305 76.4035H78.0308Z" fill="#002F48"/>
<path fill-rule="evenodd" clip-rule="evenodd" d="M30.2997 81.638H28.6419V76.9977H30.6428C31.7379 76.9977 32.3232 77.4794 32.5766 78.4358C32.7957 79.263 32.6967 80.538 32.06 81.1494C31.665 81.5288 31.0398 81.6378 30.2997 81.6378V81.638ZM27.0984 76.284V82.352C27.0984 82.5404 26.9577 82.5547 26.8125 82.5899V82.8278C28.1852 82.8278 31.2881 82.9941 32.4496 82.5071C32.5999 82.4442 32.915 82.2529 33.0279 82.1573C34.7948 80.6622 34.7206 76.6362 31.902 75.9249C30.9208 75.6771 28.1109 75.8079 26.8125 75.8079C26.846 76.2275 27.0984 75.9491 27.0984 76.284Z" fill="#002F48"/>
<path fill-rule="evenodd" clip-rule="evenodd" d="M70.4868 79.3163C70.4868 76.109 75.1744 76.0528 75.1744 79.3163C75.1744 80.6033 74.2318 81.6958 73.0593 81.6958C72.3415 81.6958 71.6447 81.6114 71.1002 80.9981C70.7825 80.6403 70.4868 79.9847 70.4868 79.3163ZM69.0004 79.0187C69.0004 79.9221 68.9707 80.1802 69.3998 81.0423C70.6104 83.4749 74.2193 83.3297 75.5328 82.0094C76.5949 80.9419 77.0342 79.4726 76.45 77.9293C75.9127 76.5099 74.5574 75.6875 73.1164 75.6875C72.3748 75.6875 71.8546 75.6822 71.1549 75.9664C70.3334 76.3002 69.7833 76.7907 69.3611 77.6099C69.1906 77.9408 69.0004 78.5351 69.0004 79.0192V79.0187Z" fill="#002F48"/>
<path fill-rule="evenodd" clip-rule="evenodd" d="M7.9375 78.9595C7.9375 80.307 8.06217 81.1603 9.12892 82.0624C10.4217 83.1552 12.3338 83.1003 13.9271 82.575L15.5978 81.8152V81.6367C15.0914 81.5139 15.2547 81.244 15.2547 79.7926C15.2547 79.5872 15.435 79.5347 15.5978 79.495V79.3165L12.6799 79.3189C12.268 79.3221 12.1323 79.3109 12.0537 78.9595H11.8822V80.6251H12.0537C12.1054 80.3939 12.1825 80.2681 12.4539 80.2681H13.9973V81.1009C13.9973 81.5999 12.2588 81.6958 11.7678 81.6958C9.70953 81.6958 8.58544 79.2097 10.1519 77.575C10.3623 77.3555 10.5694 77.2036 10.8754 77.0787C11.7844 76.7068 13.2979 76.9537 13.8688 77.4274C14.1836 77.6885 14.0119 77.7367 14.2261 77.948C14.3708 77.8377 14.8869 76.7022 14.9775 76.4556C15.0146 76.3541 15.0883 76.3325 14.9778 76.2185C14.8014 76.0365 14.8892 76.2824 14.7407 76.2824C14.0277 76.2824 13.9054 75.6875 11.5965 75.6875C9.80067 75.6875 7.93776 77.0299 7.93776 78.9595H7.9375Z" fill="#002F48"/>
<path fill-rule="evenodd" clip-rule="evenodd" d="M25.32 75.8057H19.2031C19.2367 76.2253 19.4891 75.9469 19.4891 76.2817V82.3497C19.4891 82.5381 19.3485 82.5525 19.2031 82.5876V82.8255H25.3771C25.6922 82.8255 25.3694 83.0768 25.7772 83.1231C25.9009 82.894 25.8343 81.7876 25.8343 81.4575C25.8343 81.23 25.852 81.436 25.7772 81.279C25.395 81.3225 25.6692 81.636 25.2056 81.636H20.9752V79.7323H23.6619C24.1311 79.7323 23.8168 79.9894 24.1764 80.0893C24.3339 79.748 24.2338 78.7258 24.2338 78.2449C23.9696 78.2678 24.1206 78.2252 23.9791 78.3965C23.892 78.5017 23.8782 78.6022 23.7192 78.6022H20.9752V76.9957H25.2056C25.3809 76.9957 25.4526 77.1425 25.4915 77.2933H25.663V75.4492H25.4915C25.4508 75.6312 25.4024 75.6778 25.32 75.8062V75.8057Z" fill="#002F48"/>
<path fill-rule="evenodd" clip-rule="evenodd" d="M0.911216 77.8278C0.911216 78.526 1.04536 78.8321 1.46725 79.2717C2.58238 80.4327 5.65592 79.5775 5.65592 80.7428C5.65592 81.6283 4.39896 81.6947 3.76946 81.6947C3.20523 81.6947 2.11621 81.3324 1.75678 80.9932C1.4629 80.7159 1.75781 80.5536 1.36843 80.4452C1.28549 80.8153 0.800112 81.757 0.729712 81.9968C0.626288 82.3503 0.841585 82.1705 1.08274 82.1705C1.13957 82.1705 1.59192 82.3823 1.69176 82.4289C3.13176 83.1034 5.20178 83.1796 6.43467 82.2072C7.32376 81.5061 7.81016 78.9203 4.84594 78.5516C4.2405 78.4762 2.28338 78.4714 2.28338 77.8275C2.28338 76.3854 5.60165 76.7893 6.12824 77.8123C6.27979 78.1067 6.04043 77.8992 6.34226 78.0654C6.45029 77.5827 7.05061 76.7762 7.08542 76.3401C6.74469 76.3481 6.83122 76.5325 6.13285 76.2011C4.134 75.2521 0.911473 75.5052 0.911473 77.8275L0.911216 77.8278Z" fill="#002F48"/>
<path fill-rule="evenodd" clip-rule="evenodd" d="M35.0938 76.0465C35.3395 76.0678 35.1967 76.0382 35.3797 76.1656C35.3797 77.4824 35.2548 80.0496 35.4606 81.1381C35.6111 81.9344 35.9437 82.2437 36.5599 82.5522C37.7259 83.1354 40.2347 83.1164 41.2782 82.3039C41.3197 82.2717 41.4223 82.1827 41.4635 82.1401C42.2978 81.2777 42.0109 79.6553 42.0109 78.2478C42.0109 77.93 41.9633 76.4568 42.0728 76.23C42.2338 75.897 42.3219 76.2085 42.3539 75.8086H40.353C40.3865 76.2282 40.639 75.9498 40.639 76.2847V80.3301C40.639 82.1441 37.8522 81.8614 37.2232 81.2673C36.9259 80.9865 36.866 80.4803 36.866 79.9137V76.4037C36.866 75.8486 37.1727 76.265 37.2091 75.8089H35.094V76.0468L35.0938 76.0465Z" fill="#002F48"/>
<path fill-rule="evenodd" clip-rule="evenodd" d="M55.1112 77.6529L56.14 80.0325H54.025C54.0777 79.7978 54.1796 79.6747 54.2702 79.4547C54.3724 79.2061 54.4343 79.0596 54.5398 78.8427C54.6701 78.5747 54.9228 77.8783 55.1112 77.6527V77.6529ZM54.1965 76.2847C54.1965 76.663 53.0314 79.0692 52.7864 79.5764L51.6808 81.9954C51.5704 82.2576 51.4465 82.5613 51.1094 82.5906V82.8285H53.3389V82.5906C52.6067 82.4129 53.3299 81.8494 53.5104 81.0438H56.5975C56.7429 81.6928 57.5404 82.4174 56.8261 82.5906V82.8285H59.2842V82.5906C59.0781 82.5727 59.0103 82.5325 58.9041 82.3913C58.7277 82.1571 57.6742 79.8953 57.4479 79.3854C57.1919 78.8081 56.9185 78.2614 56.6356 77.6727C56.3118 76.9986 55.7061 76.099 56.3118 76.0465V75.8086H53.9108C53.9443 76.2282 54.1967 75.9498 54.1967 76.2847H54.1965Z" fill="#002F48"/>
<path fill-rule="evenodd" clip-rule="evenodd" d="M43.2188 79.2569C43.2188 82.4003 46.4029 83.5253 48.7432 82.6859C49.4744 82.4237 49.7772 82.148 50.28 81.8981C50.6448 81.7167 50.8409 82.1715 50.7917 81.7886L50.068 80.6321C49.8328 80.2592 49.8701 80.4379 49.8502 80.4467C49.4518 80.622 50.2252 80.6708 48.9744 81.3203C47.3844 82.1459 44.7622 81.7369 44.7622 79.2569C44.7622 78.1908 45.4101 77.3718 46.2682 77.0764C47.1041 76.7887 48.0748 76.826 48.841 77.2136C49.9874 77.7933 49.5627 77.6873 49.7928 78.1862C50.0225 78.1226 50.2255 77.6891 50.4331 77.3652C50.761 76.8531 50.8921 76.8172 50.771 76.6925C50.5985 76.5148 50.6832 76.7586 50.536 76.7586C50.3494 76.7586 49.9969 76.542 49.8494 76.462C49.5955 76.3243 49.4741 76.2239 49.1725 76.0957C48.147 75.6599 48.0656 75.6879 46.9348 75.6879C45.7977 75.6879 44.9524 76.1061 44.3216 76.6568C43.6688 77.2264 43.219 78.3213 43.219 79.2572L43.2188 79.2569Z" fill="#002F48"/>
<path fill-rule="evenodd" clip-rule="evenodd" d="M58.5318 75.6277V77.2936H58.7604C58.7942 77.1425 58.808 76.996 58.989 76.996H61.1043V82.3503C61.1043 82.5386 60.9638 82.553 60.8184 82.5882V82.8261H62.9334V82.5882C62.7883 82.553 62.6475 82.5384 62.6475 82.3503V76.996H64.7625C64.9502 76.996 64.9771 77.1159 64.9912 77.2936H65.2198V75.6277C65.2198 75.4002 65.2374 75.6061 65.1627 75.4492C64.803 75.5491 65.1176 75.8062 64.6481 75.8062H59.1029C58.6337 75.8062 58.948 75.5491 58.5883 75.4492C58.5492 75.5217 58.5312 75.5129 58.5312 75.6277H58.5318Z" fill="#002F48"/>
<path fill-rule="evenodd" clip-rule="evenodd" d="M66.1375 76.2847V82.3527C66.1375 82.541 65.997 82.5554 65.8516 82.5906V82.8285H67.9669V82.5906C67.8215 82.5554 67.6809 82.5407 67.6809 82.3527V76.2847C67.6809 75.9498 67.9331 76.2285 67.9669 75.8086H65.8516C65.8851 76.2282 66.1375 75.9498 66.1375 76.2847Z" fill="#002F48"/>
<path fill-rule="evenodd" clip-rule="evenodd" d="M70.6562 24.3477V24.4073L70.7228 24.3575L70.6562 24.3477Z" fill="#3D4337"/>
</svg>
