<svg width="59" height="57" viewBox="0 0 59 57" fill="none" xmlns="http://www.w3.org/2000/svg">
<path fill-rule="evenodd" clip-rule="evenodd" d="M48.091 16.9369C48.0711 16.6959 47.937 16.4846 47.8501 16.2693C45.1858 9.67356 38.4084 4.64174 31.3841 3.96465C26.1255 3.4578 21.1646 4.78276 17.0313 7.9057C15.6734 8.93162 14.8253 9.78588 13.7073 11.0478C11.589 13.6901 10.0465 16.0358 10.0469 19.5081C10.0469 20.2098 10.0951 20.6265 10.2771 21.1357C10.3605 21.3688 10.4707 21.529 10.5835 21.7371C12.4083 25.101 15.9612 25.0526 19.3233 25.048C23.2976 24.8533 26.9578 24.4097 30.88 23.6258C36.5681 22.4886 45.2182 21.3158 48.7364 27.2848C48.8061 27.4033 48.8413 27.4623 48.9027 27.592C48.9726 27.7394 48.9693 27.817 49.1127 27.8555C49.0384 26.9581 49.0495 26.2787 48.8543 25.3859C48.5412 23.9544 48.0372 22.6929 47.3175 21.4735C45.8317 18.9566 43.5354 17.8141 40.812 17.0637C40.1054 16.869 39.3236 16.6812 38.5471 16.5742L36.766 16.3494C36.6503 16.337 36.5394 16.3501 36.424 16.3375L33.5094 16.343C30.0239 16.5103 24.8914 18.8273 21.9712 18.3446C21.2968 18.2331 20.5815 17.8854 20.3564 17.2008C20.0394 16.2373 20.64 14.8402 21.0921 14.0506C22.721 11.2053 25.7309 9.99776 28.8104 9.47691C34.41 8.52983 40.1696 9.89855 44.602 13.565L46.755 15.5122C46.988 15.8211 47.3311 16.0828 47.5739 16.3889C47.6929 16.5388 47.9529 16.844 48.0907 16.9369H48.091Z" fill="white"/>
<path fill-rule="evenodd" clip-rule="evenodd" d="M29.1075 44.7099C36.1461 44.7099 41.7735 41.444 45.8953 35.8543C46.1742 35.4759 46.8033 34.4436 46.9451 34.0627C47.3432 32.9946 47.4802 31.9776 47.0462 30.8857C46.7654 30.1791 46.2934 29.6283 45.6931 29.2015C43.3179 27.5134 38.1509 27.7141 35.0584 28.1506C32.0216 28.5791 29.0157 29.4442 26.193 30.5015C26.0061 30.5715 24.7359 31.0303 24.6269 31.18C24.8166 31.1757 25.1468 31.1178 25.3367 31.1033C27.9245 30.9074 37.1643 29.8159 37.1643 32.8021C37.1643 34.3141 36.2827 35.3033 35.132 36.1762C33.3822 37.5035 30.6544 38.1031 28.4 38.1031C25.9077 38.1031 23.4444 37.5267 21.5464 36.8919C17.4509 35.5221 12.9706 32.6362 10.7697 28.9878C9.98619 27.6889 9.46083 26.6451 8.90625 25.2461C8.90625 27.7897 10.0071 31.7382 11.3053 33.9872C15.1101 40.578 21.4925 44.7099 29.1074 44.7099H29.1075Z" fill="white"/>
<path fill-rule="evenodd" clip-rule="evenodd" d="M8.36339 15.8353C13.0314 4.05876 27.3726 -1.92865 38.8299 3.8692C39.0025 3.95654 39.1287 4.01961 39.3014 4.10659C40.7398 4.83046 42.3061 5.82857 43.5241 6.89789L44.0726 7.37445C44.1599 7.45984 44.181 7.46037 44.2679 7.53371C44.6945 7.89264 45.2731 8.54617 45.6652 8.93609C46.1342 9.40273 46.5237 9.94784 46.9431 10.4586C47.1645 10.7282 47.3409 10.9938 47.5477 11.2742C47.645 11.4062 47.7288 11.543 47.8168 11.6758L48.635 12.9886C48.9956 13.5856 49.2727 14.2189 49.5854 14.8406C50.8551 17.3639 51.6289 21.2991 51.6289 24.0188C51.6289 27.1378 51.1203 29.7842 50.0796 32.5472C49.9508 32.8893 49.7954 33.2067 49.6694 33.5189C49.5984 33.6948 49.5386 33.8055 49.4539 33.9745L48.7464 35.359C47.8515 37.0078 46.7717 38.3546 45.5471 39.7341C44.3997 40.8871 43.5027 41.6453 42.2362 42.6519C39.9163 44.2991 37.4875 45.4329 34.7296 46.1727C31.2795 47.0982 27.1329 47.0832 23.677 46.1809C22.1567 45.7841 21.0474 45.3307 19.626 44.72C18.2861 44.1445 16.5527 42.9993 15.3761 42.0747C12.57 39.8695 10.5388 37.2373 8.94789 34.0266C8.557 33.2278 8.22172 32.4101 7.94029 31.5595C6.21813 26.3562 6.33851 20.9435 8.36339 15.8352V15.8353ZM8.60663 34.9638C9.61828 37.017 11.3246 39.2489 12.8873 40.822C14.7862 42.7334 17.1032 44.3592 19.7152 45.5403C34.6478 52.2918 52.3365 41.3817 52.3365 24.5726C52.3365 21.7141 52.0828 20.1603 51.3933 17.6493C51.2912 17.2776 51.1559 16.9156 51.0344 16.5466C50.9197 16.1978 50.7806 15.8507 50.6463 15.5131C50.0585 14.0349 49.0356 12.0874 48.1028 10.8338C47.9933 10.6866 47.9157 10.5688 47.8055 10.421L46.8509 9.20608C46.3896 8.61207 45.6529 7.89866 45.1147 7.35372C43.1433 5.35768 40.2877 3.64049 37.6711 2.5825C36.9608 2.29533 36.2641 2.0652 35.529 1.85066C31.4646 0.664947 26.3036 0.668844 22.364 1.99859C22.1613 2.06715 21.9729 2.11056 21.7936 2.1761L19.7321 2.98908C19.5489 3.06561 19.4333 3.14463 19.2553 3.22116C17.8588 3.82119 16.0507 5.02852 14.8421 5.97898C10.6989 9.52196 8.07986 13.1532 6.69087 18.7411C5.32423 24.2392 6.10197 29.8813 8.6061 34.9636L8.60663 34.9638Z" fill="white"/>
<path fill-rule="evenodd" clip-rule="evenodd" d="M53.1579 51.5518V55.4683C53.1579 55.5953 53.0486 55.6555 52.9221 55.6662V55.7849C53.0727 55.8701 54.0564 55.8244 54.2977 55.8244V55.6662C54.0435 55.6065 54.1 55.4971 54.1011 55.0727V52.6991C54.445 52.9308 54.973 53.5716 55.2894 53.916L56.3298 54.9657C56.5107 55.1836 56.7302 55.3898 56.8129 55.5475C56.7316 55.6699 56.6953 55.6353 56.6557 55.7849C56.8064 55.8701 57.7899 55.8244 58.0313 55.8244C58.1816 55.8244 58.0456 55.8366 58.1492 55.7849C58.1206 55.5204 57.9134 55.7101 57.9134 55.3893V51.5518C57.9134 51.1984 58.1232 51.4714 58.1492 51.1562H56.7736C56.7889 51.341 56.8278 51.2976 56.9702 51.3936V54.2023L55.4883 52.6874C55.2116 52.3542 54.3762 51.5738 54.3762 51.4331C54.3762 51.2174 54.5092 51.4484 54.5333 51.1562H52.9219C52.9479 51.4716 53.1577 51.1984 53.1577 51.5518H53.1579Z" fill="white"/>
<path fill-rule="evenodd" clip-rule="evenodd" d="M20.3428 55.0327H19.203V51.9469H20.5786C21.3316 51.9469 21.7339 52.2672 21.9081 52.9032C22.0588 53.4533 21.9907 54.3012 21.553 54.7078C21.2814 54.96 20.8516 55.0325 20.3428 55.0325V55.0327ZM18.1419 51.4723V55.5075C18.1419 55.6327 18.0451 55.6423 17.9453 55.6657V55.8239C18.889 55.8239 21.0223 55.9344 21.8208 55.6106C21.9241 55.5688 22.1408 55.4416 22.2184 55.378C23.4332 54.3837 23.3821 51.7065 21.4444 51.2335C20.7698 51.0688 18.838 51.1558 17.9453 51.1558C17.9684 51.4348 18.1419 51.2496 18.1419 51.4723Z" fill="white"/>
<path fill-rule="evenodd" clip-rule="evenodd" d="M47.9753 53.4912C47.9753 51.3584 51.198 51.321 51.198 53.4912C51.198 54.347 50.55 55.0736 49.7439 55.0736C49.2504 55.0736 48.7713 55.0174 48.397 54.6096C48.1786 54.3717 47.9753 53.9357 47.9753 53.4912ZM46.9534 53.2933C46.9534 53.8941 46.933 54.0657 47.228 54.639C48.0603 56.2566 50.5414 56.1601 51.4444 55.2821C52.1746 54.5722 52.4767 53.5952 52.075 52.5689C51.7056 51.625 50.7739 51.0781 49.7832 51.0781C49.2733 51.0781 48.9157 51.0746 48.4346 51.2636C47.8699 51.4856 47.4916 51.8117 47.2014 52.3565C47.0842 52.5765 46.9534 52.9718 46.9534 53.2937V53.2933Z" fill="white"/>
<path fill-rule="evenodd" clip-rule="evenodd" d="M4.97656 53.254C4.97656 54.15 5.06228 54.7175 5.79567 55.3173C6.68447 56.044 7.99901 56.0075 9.09443 55.6582L10.243 55.1529V55.0342C9.89488 54.9526 10.0072 54.7731 10.0072 53.8079C10.0072 53.6714 10.1311 53.6365 10.243 53.6101V53.4914L8.23696 53.493C7.95378 53.4951 7.8605 53.4876 7.80647 53.254H7.68855V54.3616H7.80647C7.84202 54.2078 7.895 54.1242 8.08156 54.1242H9.14266V54.678C9.14266 55.0098 7.94744 55.0736 7.60987 55.0736C6.19483 55.0736 5.42202 53.4203 6.49896 52.3333C6.64363 52.1873 6.78602 52.0863 6.99634 52.0032C7.62131 51.7559 8.66183 51.9202 9.05431 52.2351C9.27079 52.4088 9.15269 52.4408 9.3 52.5813C9.39944 52.508 9.75426 51.7529 9.81656 51.5889C9.84208 51.5214 9.89277 51.507 9.81674 51.4312C9.69547 51.3102 9.75584 51.4737 9.65376 51.4737C9.1636 51.4737 9.07948 51.0781 7.49213 51.0781C6.25749 51.0781 4.97674 51.9708 4.97674 53.254H4.97656Z" fill="white"/>
<path fill-rule="evenodd" clip-rule="evenodd" d="M16.9241 51.1589H12.7188C12.7418 51.4379 12.9153 51.2528 12.9153 51.4755V55.5106C12.9153 55.6359 12.8187 55.6454 12.7188 55.6688V55.827H16.9633C17.18 55.827 16.9581 55.9941 17.2384 56.0249C17.3234 55.8726 17.2777 55.1368 17.2777 54.9173C17.2777 54.766 17.2898 54.903 17.2384 54.7986C16.9757 54.8275 17.1642 55.036 16.8454 55.036H13.937V53.77H15.7841C16.1067 53.77 15.8906 53.941 16.1379 54.0074C16.2461 53.7805 16.1773 53.1007 16.1773 52.781C15.9957 52.7962 16.0995 52.7679 16.0022 52.8818C15.9424 52.9518 15.9329 53.0185 15.8236 53.0185H13.937V51.9503H16.8454C16.966 51.9503 17.0153 52.0479 17.042 52.1482H17.1599V50.9219H17.042C17.014 51.0429 16.9808 51.0739 16.9241 51.1593V51.1589Z" fill="white"/>
<path fill-rule="evenodd" clip-rule="evenodd" d="M0.143063 52.504C0.143063 52.9683 0.235286 53.1718 0.525334 53.4642C1.29199 54.2362 3.40505 53.6675 3.40505 54.4424C3.40505 55.0313 2.54089 55.0754 2.1081 55.0754C1.7202 55.0754 0.971494 54.8345 0.72439 54.609C0.522342 54.4245 0.725095 54.3166 0.457399 54.2445C0.400375 54.4906 0.0666783 55.1169 0.0182783 55.2763C-0.0528257 55.5114 0.095191 55.3918 0.260983 55.3918C0.300055 55.3918 0.611047 55.5327 0.679687 55.5637C1.66969 56.0122 3.09282 56.0629 3.94044 55.4163C4.55169 54.95 4.88609 53.2305 2.84818 52.9853C2.43194 52.9352 1.08642 52.932 1.08642 52.5038C1.08642 51.5448 3.36773 51.8134 3.72977 52.4937C3.83396 52.6894 3.6694 52.5514 3.8769 52.662C3.95117 52.341 4.36389 51.8047 4.38783 51.5147C4.15357 51.52 4.21306 51.6426 3.73294 51.4222C2.35873 50.7912 0.143239 50.9595 0.143239 52.5038L0.143063 52.504Z" fill="white"/>
<path fill-rule="evenodd" clip-rule="evenodd" d="M23.6406 51.3145C23.8096 51.3286 23.7114 51.309 23.8372 51.3936C23.8372 52.2693 23.7513 53.9764 23.8928 54.7003C23.9963 55.2298 24.2249 55.4355 24.6486 55.6406C25.4503 56.0284 27.1751 56.0159 27.8924 55.4755C27.9209 55.4541 27.9915 55.3949 28.0199 55.3666C28.5934 54.7931 28.3961 53.7142 28.3961 52.7783C28.3961 52.567 28.3634 51.5873 28.4387 51.4365C28.5494 51.2151 28.61 51.4222 28.632 51.1562H27.2564C27.2794 51.4353 27.453 51.2501 27.453 51.4728V54.163C27.453 55.3692 25.537 55.1813 25.1046 54.7862C24.9003 54.5995 24.8591 54.2629 24.8591 53.8861V51.552C24.8591 51.1828 25.0699 51.4597 25.0949 51.1564H23.6408V51.3146L23.6406 51.3145Z" fill="white"/>
<path fill-rule="evenodd" clip-rule="evenodd" d="M37.3997 52.3827L38.107 53.9651H36.6529C36.6892 53.809 36.7592 53.7272 36.8215 53.5808C36.8917 53.4155 36.9343 53.3181 37.0068 53.1739C37.0964 52.9957 37.2701 52.5326 37.3997 52.3825V52.3827ZM36.7708 51.4728C36.7708 51.7244 35.9698 53.3245 35.8014 53.6618L35.0413 55.2704C34.9654 55.4447 34.8802 55.6467 34.6484 55.6662V55.8244H36.1812V55.6662C35.6779 55.548 36.1751 55.1733 36.2991 54.6376H38.4215C38.5215 55.0691 39.0697 55.551 38.5787 55.6662V55.8244H40.2686V55.6662C40.127 55.6543 40.0803 55.6275 40.0073 55.5336C39.886 55.3779 39.1618 53.8739 39.0062 53.5348C38.8302 53.1509 38.6422 52.7873 38.4478 52.3958C38.2251 51.9476 37.8087 51.3494 38.2251 51.3145V51.1562H36.5744C36.5975 51.4353 36.771 51.2501 36.771 51.4728H36.7708Z" fill="white"/>
<path fill-rule="evenodd" clip-rule="evenodd" d="M29.2266 53.4517C29.2266 55.542 31.4157 56.2902 33.0246 55.7319C33.5273 55.5576 33.7355 55.3743 34.0812 55.2081C34.332 55.0874 34.4668 55.3899 34.433 55.1353L33.9354 54.3662C33.7737 54.1182 33.7994 54.2371 33.7857 54.2429C33.5118 54.3595 34.0435 54.3919 33.1836 54.8238C32.0904 55.3728 30.2877 55.1009 30.2877 53.4517C30.2877 52.7428 30.7331 52.1982 31.3231 52.0017C31.8977 51.8104 32.5651 51.8352 33.0919 52.0929C33.88 52.4784 33.588 52.4079 33.7462 52.7397C33.9041 52.6974 34.0437 52.4092 34.1864 52.1938C34.4119 51.8533 34.502 51.8293 34.4187 51.7464C34.3001 51.6283 34.3584 51.7904 34.2572 51.7904C34.1289 51.7904 33.8865 51.6463 33.7851 51.5932C33.6105 51.5016 33.5271 51.4348 33.3198 51.3496C32.6147 51.0598 32.5588 51.0784 31.7814 51.0784C30.9996 51.0784 30.4184 51.3565 29.9848 51.7227C29.536 52.1015 29.2267 52.8296 29.2267 53.4519L29.2266 53.4517Z" fill="white"/>
<path fill-rule="evenodd" clip-rule="evenodd" d="M39.7582 51.0367V52.1444H39.9153C39.9386 52.044 39.9481 51.9465 40.0725 51.9465H41.5268V55.5071C41.5268 55.6323 41.4302 55.6419 41.3302 55.6653V55.8235H42.7843V55.6653C42.6845 55.6419 42.5877 55.6321 42.5877 55.5071V51.9465H44.0418C44.1708 51.9465 44.1893 52.0263 44.199 52.1444H44.3562V51.0367C44.3562 50.8854 44.3683 51.0223 44.3169 50.918C44.0696 50.9844 44.2859 51.1554 43.9632 51.1554H40.1508C39.8282 51.1554 40.0443 50.9844 39.7971 50.918C39.7701 50.9662 39.7578 50.9603 39.7578 51.0367H39.7582Z" fill="white"/>
<path fill-rule="evenodd" clip-rule="evenodd" d="M44.9857 51.4728V55.508C44.9857 55.6332 44.889 55.6428 44.7891 55.6662V55.8244H46.2433V55.6662C46.1434 55.6428 46.0468 55.633 46.0468 55.508V51.4728C46.0468 51.2501 46.2201 51.4355 46.2433 51.1562H44.7891C44.8121 51.4353 44.9857 51.2501 44.9857 51.4728Z" fill="white"/>
<path fill-rule="evenodd" clip-rule="evenodd" d="M48.0938 16.9375V16.9769L48.1395 16.944L48.0938 16.9375Z" fill="#3D4337"/>
</svg>
