<svg width="16" height="12" viewBox="0 0 16 12" fill="none" xmlns="http://www.w3.org/2000/svg">
<path fill-rule="evenodd" clip-rule="evenodd" d="M7.5472 11.6835C7.32402 11.4975 7.19791 11.2446 7.19661 10.9805C7.19531 10.7163 7.31893 10.4625 7.54027 10.2748L12.6089 5.97899L7.49818 1.72135C7.28129 1.53427 7.16056 1.28308 7.16197 1.02186C7.16339 0.760647 7.28684 0.510315 7.50575 0.324784C7.72465 0.139252 8.0215 0.0333628 8.33234 0.0299256C8.64318 0.0264884 8.94315 0.125777 9.16764 0.306406L15.12 5.26522C15.3432 5.4512 15.4693 5.70408 15.4706 5.96824C15.4719 6.2324 15.3483 6.48621 15.1269 6.67386L9.22359 11.6772C9.00219 11.8648 8.7012 11.9708 8.38683 11.972C8.07246 11.9732 7.77044 11.8694 7.5472 11.6835ZM0.433774 11.7102C0.210595 11.5242 0.0844905 11.2713 0.0831907 11.0072C0.0818909 10.743 0.205502 10.4892 0.426843 10.3016L5.49545 6.0057L0.384755 1.74807C0.16787 1.56099 0.0471329 1.30979 0.0485489 1.04858C0.0499648 0.787361 0.173422 0.537029 0.392328 0.351498C0.611234 0.165966 0.908074 0.060077 1.21892 0.0566398C1.52976 0.0532026 1.82973 0.152491 2.05422 0.33312L8.00658 5.29193C8.22976 5.47792 8.35587 5.73079 8.35717 5.99495C8.35847 6.25911 8.23486 6.51293 8.01351 6.70058L2.11017 11.7039C1.88876 11.8915 1.58778 11.9976 1.27341 11.9987C0.959038 11.9999 0.65702 11.8961 0.433774 11.7102Z" fill="#406376"/>
</svg>
