<svg width="22" height="19" viewBox="0 0 22 19" fill="none" xmlns="http://www.w3.org/2000/svg">
<path d="M4 14.8728V11.0823L8.06017 13.7525C9.8463 14.9271 12.1537 14.9271 13.9398 13.7525L18 11.0823V14.8728C18 15.0362 17.9474 15.1951 17.85 15.3258L17.8489 15.3273L17.8477 15.3289L17.8446 15.3329L17.8364 15.3437L17.8243 15.3592L17.8111 15.3757C17.7904 15.4015 17.7619 15.436 17.7253 15.4781C17.6522 15.5622 17.5469 15.6765 17.4081 15.8106C17.1305 16.0789 16.7176 16.4278 16.1587 16.774C15.0359 17.4695 13.3387 18.1442 11 18.1442C8.66127 18.1442 6.96408 17.4695 5.8413 16.774C5.2824 16.4278 4.86951 16.0789 4.59193 15.8106C4.45308 15.6765 4.34778 15.5622 4.27468 15.4781C4.23812 15.436 4.20956 15.4015 4.18885 15.3757C4.1785 15.3628 4.17009 15.352 4.16363 15.3437L4.15537 15.3329L4.15233 15.3289L4.15107 15.3273C4.05371 15.1965 4 15.0362 4 14.8728ZM21.1602 7.20057L13.1194 12.4884C11.8317 13.3353 10.1683 13.3353 8.88058 12.4884L2 7.96355V13.3629C2 13.7799 1.66421 14.1179 1.25 14.1179C0.83579 14.1179 0.5 13.7799 0.5 13.3629V7.07185C0.5 6.98351 0.51508 6.8987 0.54278 6.81992C0.51448 6.73926 0.49963 6.65328 0.50001 6.5653C0.50111 6.30925 0.63108 6.07121 0.84525 5.93302L8.90878 0.730036C10.1832 -0.0922986 11.8168 -0.0923087 13.0912 0.730036L21.1548 5.93302C21.3689 6.07121 21.4989 6.30925 21.5 6.5653C21.501 6.78936 21.4031 7.00048 21.236 7.14359C21.2121 7.16403 21.1868 7.18305 21.1602 7.20057Z" fill="#002F48"/>
</svg>
