<svg width="294" height="281" viewBox="0 0 294 281" fill="none" xmlns="http://www.w3.org/2000/svg">
<path fill-rule="evenodd" clip-rule="evenodd" d="M215.786 190.063C236.617 168.307 241.662 141.968 233.99 113.92C233.471 112.021 231.663 107.25 230.728 105.768C228.11 101.612 224.899 98.4037 219.734 96.7552C216.391 95.6876 213.035 95.6383 209.742 96.3252C196.711 99.0437 182.132 115.565 174.531 126.319C167.066 136.88 161.245 148.541 156.65 160.161C156.345 160.931 154.217 166.113 154.427 166.86C154.973 166.262 155.744 165.083 156.255 164.456C163.217 155.921 186.684 124.371 197.299 132.549C202.674 136.69 203.582 142.124 203.279 148.071C202.819 157.115 196.877 167.189 190.205 174.157C182.829 181.861 173.489 187.897 165.615 192.025C148.624 200.933 125.105 206.879 105.622 203.69C98.685 202.555 93.4194 201.32 86.8047 199.203C95.8471 206.169 113.142 213.58 124.979 215.726C159.67 222.015 193.248 213.602 215.785 190.064L215.786 190.063Z" fill="white" fill-opacity="0.25"/>
<path fill-rule="evenodd" clip-rule="evenodd" d="M182.039 68.5582C181.117 67.953 179.969 67.7767 178.944 67.4462C147.537 57.3209 109.771 64.0162 86.9029 83.4929C69.7837 98.0736 60.0999 116.811 59.2721 138C59.0002 144.961 59.5958 149.898 60.8682 156.782C64.1802 170.52 68.1043 181.688 80.5578 191.28C83.0744 193.219 84.709 194.223 87.0645 195.077C88.1433 195.468 89.0383 195.575 90.113 195.807C107.487 199.555 117.652 188.624 127.418 178.394C138.285 165.778 147.344 153.429 155.946 139.343C168.419 118.915 189.384 89.3869 221.028 95.1854C221.655 95.3011 221.969 95.3571 222.613 95.5287C223.345 95.7235 223.614 95.9481 224.169 95.6184C220.735 93.3651 218.331 91.4544 214.561 89.5808C208.516 86.5776 202.525 84.6242 196.058 83.4425C182.708 81.0045 171.929 84.8266 161.313 91.0299C158.559 92.6395 155.611 94.4967 152.967 96.5609L146.978 101.353C146.597 101.67 146.322 102.043 145.941 102.359L137.479 111.232C127.937 122.287 121.312 144.286 111.083 151.827C108.721 153.569 105.392 154.781 102.282 153.574C97.9045 151.876 94.6417 146.191 93.1257 142.635C87.6614 129.824 92.0895 117.341 99.1824 106.543C112.08 86.9092 133.748 73.1869 159.794 69.846L173.042 68.6824C174.828 68.8278 176.765 68.5082 178.57 68.6158C179.453 68.6683 181.304 68.7216 182.038 68.5593L182.039 68.5582Z" fill="#7F96A3" fill-opacity="0.2"/>
</svg>
